HIERARCHY
ROOT Hips
{
	OFFSET 0.000000 89.005402 0.000000
	CHANNELS 6 Xposition Yposition Zposition Xrotation Yrotation Zrotation
	JOINT Spine
	{
		OFFSET 0.116900 10.681000 0.373400
		CHANNELS 3 Xrotation Yrotation Zrotation
		JOINT Spine1
		{
			OFFSET 0.000000 13.840401 0.053500
			CHANNELS 3 Xrotation Yrotation Zrotation
			JOINT Spine2
			{
				OFFSET 0.000000 14.712700 -0.366200
				CHANNELS 3 Xrotation Yrotation Zrotation
				JOINT Neck
				{
					OFFSET 0.000000 35.415497 -3.314200
					CHANNELS 3 Xrotation Yrotation Zrotation
					JOINT Head
					{
						OFFSET 0.000000 16.899200 1.218300
						CHANNELS 3 Xrotation Yrotation Zrotation
						JOINT HeadTop_End
						{
							OFFSET 0.000000 22.206207 2.192500
							CHANNELS 3 Xrotation Yrotation Zrotation
							End Site
							{
								OFFSET 0.000000 22.314178 0.000000
							}
						}
					}
				}
				JOINT LeftShoulder
				{
					OFFSET 12.896400 26.716293 -4.548400
					CHANNELS 3 Xrotation Yrotation Zrotation
					JOINT LeftArm
					{
						OFFSET 19.027000 -4.857010 -1.718400
						CHANNELS 3 Xrotation Yrotation Zrotation
						JOINT LeftForeArm
						{
							OFFSET 24.179897 0.000000 0.000000
							CHANNELS 3 Xrotation Yrotation Zrotation
							JOINT LeftHand
							{
								OFFSET 27.156403 0.000000 0.000000
								CHANNELS 3 Xrotation Yrotation Zrotation
								JOINT LeftHandIndex1
								{
									OFFSET 16.441200 0.000000 0.000000
									CHANNELS 3 Xrotation Yrotation Zrotation
									JOINT LeftHandIndex2
									{
										OFFSET 4.821899 0.000000 0.000000
										CHANNELS 3 Xrotation Yrotation Zrotation
										JOINT LeftHandIndex3
										{
											OFFSET 6.386497 0.000000 0.000000
											CHANNELS 3 Xrotation Yrotation Zrotation
											JOINT LeftHandIndex4
											{
												OFFSET 5.188988 0.000000 0.000000
												CHANNELS 3 Xrotation Yrotation Zrotation
												End Site
												{
													OFFSET -0.178703 5.185913 0.000177
												}
											}
										}
									}
								}
								JOINT LeftHandThumb1
								{
									OFFSET 6.534897 -5.032593 5.900300
									CHANNELS 3 Xrotation Yrotation Zrotation
									JOINT LeftHandThumb2
									{
										OFFSET 3.818176 -2.204422 2.204423
										CHANNELS 3 Xrotation Yrotation Zrotation
										JOINT LeftHandThumb3
										{
											OFFSET 3.252098 -1.877594 1.877601
											CHANNELS 3 Xrotation Yrotation Zrotation
											JOINT LeftHandThumb4
											{
												OFFSET 5.251778 -3.032120 3.032117
												CHANNELS 3 Xrotation Yrotation Zrotation
												End Site
												{
													OFFSET 0.000023 6.780014 0.000000
												}
											}
										}
									}
								}
							}
						}
					}
				}
				JOINT RightShoulder
				{
					OFFSET -12.896300 26.716293 -4.548400
					CHANNELS 3 Xrotation Yrotation Zrotation
					JOINT RightArm
					{
						OFFSET -19.027000 -4.857010 -1.718400
						CHANNELS 3 Xrotation Yrotation Zrotation
						JOINT RightForeArm
						{
							OFFSET -24.179897 0.000000 0.000000
							CHANNELS 3 Xrotation Yrotation Zrotation
							JOINT RightHand
							{
								OFFSET -27.156403 0.000000 0.000000
								CHANNELS 3 Xrotation Yrotation Zrotation
								JOINT RightHandThumb1
								{
									OFFSET -6.591202 -4.852203 5.988100
									CHANNELS 3 Xrotation Yrotation Zrotation
									JOINT RightHandThumb2
									{
										OFFSET -3.818176 -2.204422 2.204423
										CHANNELS 3 Xrotation Yrotation Zrotation
										JOINT RightHandThumb3
										{
											OFFSET -3.252098 -1.877594 1.877601
											CHANNELS 3 Xrotation Yrotation Zrotation
											JOINT RightHandThumb4
											{
												OFFSET -5.251778 -3.032120 3.032117
												CHANNELS 3 Xrotation Yrotation Zrotation
												End Site
												{
													OFFSET -0.000023 6.780014 0.000000
												}
											}
										}
									}
								}
								JOINT RightHandIndex1
								{
									OFFSET -16.029404 0.000000 0.000000
									CHANNELS 3 Xrotation Yrotation Zrotation
									JOINT RightHandIndex2
									{
										OFFSET -5.213303 0.000000 0.000000
										CHANNELS 3 Xrotation Yrotation Zrotation
										JOINT RightHandIndex3
										{
											OFFSET -6.386528 0.000000 0.000000
											CHANNELS 3 Xrotation Yrotation Zrotation
											JOINT RightHandIndex4
											{
												OFFSET -5.189026 0.000000 0.000000
												CHANNELS 3 Xrotation Yrotation Zrotation
												End Site
												{
													OFFSET 0.236702 5.183624 0.001972
												}
											}
										}
									}
								}
							}
						}
					}
				}
			}
		}
	}
	JOINT LeftUpLeg
	{
		OFFSET 14.073000 -7.904099 -1.463000
		CHANNELS 3 Xrotation Yrotation Zrotation
		JOINT LeftLeg
		{
			OFFSET -0.109806 -34.073280 4.093200
			CHANNELS 3 Xrotation Yrotation Zrotation
			JOINT LeftFoot
			{
				OFFSET 0.109806 -29.899420 -6.319000
				CHANNELS 3 Xrotation Yrotation Zrotation
				JOINT LeftToeBase
				{
					OFFSET 1.551100 -14.988700 20.535801
					CHANNELS 3 Xrotation Yrotation Zrotation
					JOINT LeftToe_End
					{
						OFFSET 0.221200 0.570800 13.248301
						CHANNELS 3 Xrotation Yrotation Zrotation
						End Site
						{
							OFFSET 0.000000 13.262435 0.000000
						}
					}
				}
			}
		}
	}
	JOINT RightUpLeg
	{
		OFFSET -13.839300 -7.904099 -1.463000
		CHANNELS 3 Xrotation Yrotation Zrotation
		JOINT RightLeg
		{
			OFFSET 0.109694 -34.073219 4.093300
			CHANNELS 3 Xrotation Yrotation Zrotation
			JOINT RightFoot
			{
				OFFSET -0.109694 -29.899384 -6.319200
				CHANNELS 3 Xrotation Yrotation Zrotation
				JOINT RightToeBase
				{
					OFFSET -1.551100 -14.988700 20.535801
					CHANNELS 3 Xrotation Yrotation Zrotation
					JOINT RightToe_End
					{
						OFFSET -0.221200 0.570900 13.248299
						CHANNELS 3 Xrotation Yrotation Zrotation
						End Site
						{
							OFFSET 0.000000 13.262440 0.000000
						}
					}
				}
			}
		}
	}
}
MOTION
Frames: 6
Frame Time: 0.033333
0.425086 87.517250 1.224236 -3.753213 -5.220571 -3.401763 3.318516 1.523683 2.368206 1.151890 0.338090 1.552798 1.126015 0.357823 1.555887 5.626306 -0.070605 0.450791 -7.563386 1.383221 -0.070680 0.000000 -0.000000 -0.000000 1.049041 -17.442275 -12.323087 3.903246 -19.993159 -69.779501 -0.000003 -1.459372 -0.000001 -33.230390 -1.364821 -6.186633 0.012269 -0.968626 -7.593123 0.267871 1.752896 -17.375713 0.057681 0.820954 -8.037999 -0.000001 0.000000 0.000004 -0.663006 2.160313 4.832513 11.850538 25.421001 17.058688 -13.824206 3.535804 9.045286 0.000000 0.000002 0.000004 1.202079 15.343740 14.710132 13.158869 27.555119 58.785136 -0.000007 6.693734 0.000015 -20.179092 -0.514087 6.782829 -1.665254 -0.174482 -4.219033 12.712567 -29.818400 -16.129497 -15.549416 -3.559417 -12.707140 0.000003 -0.000001 0.000000 0.038552 1.262293 6.823731 0.213725 -1.396029 17.407046 0.046028 -0.653851 8.053214 0.000001 0.000000 -0.000000 -10.577755 14.628945 11.281953 14.304650 1.679071 4.168895 -0.856981 0.903269 -8.537155 -4.919017 0.000001 0.000002 -0.000000 0.000001 -0.000000 4.190324 -10.127634 2.646195 5.513176 -9.461984 -3.266539 -5.119021 -2.096381 4.577081 -7.282874 0.000005 0.000001 0.000000 -0.000000 0.000000 
0.435765 87.495941 1.234664 -3.763271 -5.208324 -3.402661 3.318496 1.523707 2.368982 1.163433 0.338091 1.552798 1.137588 0.357823 1.555887 5.652156 -0.070606 0.445725 -7.566243 1.415534 -0.075052 0.000000 -0.000000 0.000000 1.054295 -17.423975 -12.321812 3.911427 -20.014008 -69.777971 0.000003 -1.459374 -0.000021 -33.230602 -1.359332 -6.195009 0.015580 -1.001972 -7.488343 0.267337 1.751196 -17.358314 0.057429 0.819169 -8.020451 -0.000001 -0.000001 -0.000004 -0.727782 2.100059 4.849530 11.857808 25.421295 17.035412 -13.824208 3.535804 9.045271 -0.000000 0.000001 0.000004 1.200677 15.394770 14.718634 13.484043 27.787682 58.521880 0.000003 7.168786 0.000007 -20.590908 -0.463408 6.746473 -2.046923 0.250921 -3.906704 12.762458 -29.817850 -15.988158 -15.618266 -3.591556 -12.933866 -0.000001 0.000001 0.000003 0.125079 0.863097 7.169683 0.213817 -1.396354 17.411209 0.046031 -0.653887 8.053692 -0.000001 -0.000002 0.000002 -10.641646 14.648423 11.306325 14.469266 1.636946 4.147461 -0.980268 0.901808 -8.491109 -4.919016 0.000010 -0.000001 -0.000000 -0.000001 0.000000 4.136495 -10.095305 2.652593 5.664883 -9.540506 -3.320393 -5.207792 -2.096029 4.635819 -7.292725 -0.000002 0.000001 0.000000 -0.000000 0.000000 
0.444663 87.477859 1.252122 -3.797426 -5.183229 -3.408517 3.318381 1.523572 2.373370 1.175750 0.338090 1.552798 1.150040 0.357823 1.555886 5.697602 -0.070605 0.431156 -7.584485 1.441544 -0.090122 0.000000 0.000000 -0.000000 1.063289 -17.403061 -12.316036 3.917265 -20.042712 -69.777650 0.000000 -1.459357 0.000004 -33.215326 -1.336702 -6.210986 0.014571 -0.967706 -7.562412 0.266835 1.749583 -17.341838 0.057196 0.817517 -8.004115 -0.000000 -0.000000 -0.000001 -0.668987 2.108778 4.811195 11.853173 25.421103 17.050242 -13.824215 3.535804 9.045284 -0.000001 -0.000000 0.000000 1.194558 15.453166 14.750813 13.834742 27.966321 58.232554 0.000003 7.914481 -0.000005 -21.394809 -0.192220 6.546630 -2.333972 0.672329 -3.577998 12.747440 -29.821975 -16.029841 -15.741914 -3.665038 -13.318466 -0.000000 -0.000001 -0.000003 0.206003 0.545471 7.329923 0.210102 -1.384433 17.257839 0.044255 -0.641232 7.896710 -0.000001 0.000000 0.000001 -10.686534 14.682545 11.342605 14.641549 1.556988 4.117845 -1.099625 0.897455 -8.460009 -4.919016 0.000006 -0.000001 -0.000000 -0.000000 0.000000 4.140838 -10.031262 2.692817 5.759358 -9.667264 -3.438838 -5.275309 -2.103209 4.736141 -7.310075 0.000009 -0.000000 -0.000000 0.000000 -0.000000 
0.450124 87.454620 1.281456 -3.871006 -5.104860 -3.406788 3.318289 1.523425 2.376639 1.188007 0.338092 1.541367 1.162298 0.357822 1.544933 5.768661 -0.058988 0.397518 -7.636981 1.492078 -0.156931 -0.000000 -0.000000 -0.000000 1.070333 -17.405537 -12.301563 3.934580 -20.062118 -69.763511 -0.000001 -1.459368 0.000003 -33.199371 -1.310908 -6.226966 0.016011 -0.998788 -7.487836 0.267877 1.752911 -17.375844 0.057682 0.820956 -8.038027 -0.000000 -0.000000 0.000002 -0.715067 2.117690 4.849436 11.850166 25.419708 17.060242 -13.824211 3.535805 9.045286 0.000001 0.000001 0.000004 1.184920 15.492851 14.802451 14.215610 27.993284 57.862897 -0.000000 9.064838 0.000011 -22.727682 0.446837 6.042425 -2.909714 1.567066 -3.234622 12.956522 -29.868943 -15.439308 -15.696106 -3.602646 -13.213259 -0.000001 0.000001 -0.000000 0.334825 0.175177 7.029572 0.207654 -1.376549 17.156435 0.043065 -0.632600 7.789689 -0.000001 -0.000000 0.000002 -10.706989 14.717859 11.360203 14.841806 1.431052 4.100293 -1.215951 0.890598 -8.433204 -4.919017 -0.000004 0.000000 -0.000000 -0.000000 -0.000000 4.193256 -9.942295 2.755965 5.880387 -9.736488 -3.616056 -5.372568 -2.260959 4.867851 -7.341028 -0.000009 -0.000001 -0.000000 -0.000000 -0.000000 
0.451352 87.411736 1.328272 -3.994414 -4.936035 -3.377139 3.322859 1.518238 2.362693 1.189018 0.321490 1.519204 1.163209 0.344290 1.521717 5.870959 -0.033849 0.308838 -7.681074 1.621748 -0.313112 -0.000000 -0.000000 0.000000 1.067890 -17.434271 -12.303701 3.988237 -20.067070 -69.670081 -0.000004 -1.459349 0.000017 -33.191905 -1.300341 -6.248674 0.004307 -1.016282 -7.595099 0.267950 1.753145 -17.378264 0.057712 0.821173 -8.040201 0.000000 -0.000000 0.000001 -0.596643 2.126155 4.769412 11.845717 25.416888 17.075261 -13.824199 3.537423 9.051438 -0.000000 -0.000001 0.000002 1.183417 15.534225 14.809551 14.726059 27.711575 57.174742 0.000007 10.738102 -0.000027 -24.462980 1.337300 5.244194 -3.448056 2.360140 -2.981118 13.160527 -29.909730 -14.874764 -15.633758 -3.534754 -13.050493 0.000003 0.000000 0.000001 0.467134 -0.142361 6.340159 0.199519 -1.349903 16.814252 0.039306 -0.604474 7.441535 0.000000 -0.000000 0.000000 -10.720124 14.751588 11.344662 15.126388 1.228419 4.105760 -1.362947 0.884251 -8.408833 -4.919014 0.000003 0.000000 -0.000000 -0.000000 0.000000 4.253432 -9.853654 2.808860 6.178657 -9.724195 -3.812424 -5.596924 -2.600543 5.011928 -7.384211 0.000007 0.000000 -0.000000 -0.000002 -0.000000 
0.445477 87.346344 1.398671 -4.173890 -4.657933 -3.333940 3.312389 1.504315 2.336993 1.157941 0.294266 1.487506 1.132149 0.317425 1.489810 6.014731 0.014449 0.122499 -7.624711 1.853130 -0.556841 -0.000000 -0.000000 0.000000 1.057495 -17.439071 -12.356719 4.106623 -20.094859 -69.458263 -0.000010 -1.448364 -0.000002 -33.165961 -1.284480 -6.286451 0.005206 -1.022678 -7.553678 0.267888 1.752954 -17.376324 0.057683 0.820977 -8.038227 0.000000 0.000000 -0.000000 -0.570131 2.099936 4.736043 11.831264 25.413503 17.122328 -13.827508 3.544145 9.073232 0.000001 0.000001 0.000002 1.199974 15.618392 14.709352 15.356311 27.324378 56.250798 -0.000007 12.968777 0.000023 -26.344796 2.149229 4.261529 -4.689677 3.665937 -2.688586 13.471320 -29.963671 -14.017479 -15.563628 -3.448947 -12.874409 -0.000001 -0.000000 0.000000 0.679572 -0.705325 5.128890 0.194581 -1.333475 16.603510 0.036990 -0.586426 7.218046 0.000003 -0.000001 -0.000000 -10.736309 14.797583 11.319273 15.519791 0.913977 4.135179 -1.565411 0.877849 -8.392590 -4.919018 0.000004 0.000001 0.000000 -0.000000 0.000000 4.346188 -9.772543 2.850814 6.650960 -9.706775 -3.999168 -5.972810 -3.044034 5.167315 -7.425648 0.000006 -0.000000 -0.000000 -0.000001 0.000000 
